<svg version="1.1" id="Layer_1" xmlns="http://www.w3.org/2000/svg" xmlns:xlink="http://www.w3.org/1999/xlink" x="0px" y="0px"
	 width="100%" viewBox="0 0 800 800" enable-background="new 0 0 800 800" xml:space="preserve">
<path fill="#000000" opacity="1.000000" stroke="none" 
	d="
M343.482910,410.660309 
	C348.682404,442.946991 354.391205,474.698730 361.368835,506.202209 
	C363.957489,517.889954 367.041565,529.494995 371.844727,540.535217 
	C372.886749,542.930420 373.633362,545.533020 375.973328,547.551575 
	C378.970276,545.492615 379.729553,542.169861 380.896973,539.198730 
	C386.995728,523.676880 391.836273,507.762115 395.588593,491.511292 
	C396.034729,489.579163 395.697021,486.398773 398.825134,486.931122 
	C401.565948,487.397583 400.873138,490.320953 400.946533,492.400238 
	C401.339600,503.537903 400.494690,514.726440 402.301422,525.804077 
	C402.595215,527.605225 402.553009,529.813171 403.588287,531.078674 
	C407.494446,535.853455 405.351654,540.527893 403.823425,545.197021 
	C401.376129,552.674133 398.198090,559.851440 393.147369,565.962952 
	C382.524933,578.816467 367.064789,578.309387 357.189026,564.888123 
	C349.505890,554.446594 346.220978,542.160461 342.877838,529.958679 
	C335.478149,502.951294 330.774231,475.369202 325.721588,447.864563 
	C325.338501,445.779175 324.790619,443.724060 323.225464,441.554291 
	C321.932098,446.898376 320.713898,452.261993 319.331696,457.582947 
	C314.642151,475.635468 309.764740,493.629761 301.404297,510.437744 
	C299.395813,514.475647 297.111786,518.362427 294.140320,521.767273 
	C279.063171,539.043213 259.152954,539.077637 243.752274,521.947327 
	C237.459229,514.947510 232.502548,507.061279 228.414566,498.649017 
	C220.626617,482.622894 212.638000,466.676788 205.447296,450.382141 
	C195.358185,427.519348 177.670868,417.372955 153.318146,417.347382 
	C111.165176,417.303101 69.012222,417.229675 26.859287,417.157379 
	C24.863003,417.153931 22.833155,417.254669 20.877016,416.942719 
	C14.879906,415.986359 10.778066,410.983398 10.899222,405.020020 
	C11.027183,398.721649 14.853491,394.081696 20.894617,393.107819 
	C22.688951,392.818573 24.547470,392.864044 26.376612,392.863464 
	C64.531158,392.851135 102.685730,392.832306 140.840240,392.869812 
	C150.341446,392.879120 159.781525,393.825500 169.220871,394.892609 
	C195.192673,397.828644 212.377228,412.962524 224.020752,435.068787 
	C232.706635,451.559662 240.289139,468.628998 248.523010,485.361969 
	C251.756134,491.932373 255.282822,498.390137 259.989105,504.066620 
	C267.291016,512.873718 273.072144,512.451172 278.644684,502.422058 
	C286.805695,487.734406 291.530609,471.719452 295.439362,455.521362 
	C301.645142,429.804230 307.539124,404.006714 311.919250,377.894989 
	C312.111450,376.749115 312.444977,375.622467 312.773651,374.504791 
	C314.607574,368.268250 319.336060,364.263458 324.812408,364.282990 
	C330.601044,364.303680 335.969025,368.796539 337.235352,375.362549 
	C339.470276,386.950714 341.368042,398.603912 343.482910,410.660309 
z"/>
<path fill="#000000" opacity="1.000000" stroke="none" 
	d="
M156.228424,343.229736 
	C164.584229,335.276154 170.740402,325.790192 179.034317,318.266724 
	C185.690689,312.228668 193.021683,307.378357 202.333405,306.849274 
	C215.393295,306.107269 224.377777,313.238861 231.676270,322.927460 
	C240.889206,335.157440 246.600220,349.236694 252.155380,363.358887 
	C255.319275,371.402039 258.464813,379.452484 262.125000,388.791718 
	C265.875183,375.946381 269.459137,364.273773 272.684937,352.502991 
	C280.907318,322.499634 287.287781,291.946716 299.578247,263.169006 
	C301.808990,257.945862 304.361755,252.897263 307.880402,248.404831 
	C318.313049,235.084976 335.106262,235.148331 345.205872,248.754761 
	C353.103821,259.394989 356.816040,271.912720 360.060120,284.514893 
	C366.707031,310.335907 370.168182,336.746246 374.304840,363.032104 
	C377.276581,381.915680 379.686249,400.894989 383.873688,419.577332 
	C385.721191,427.819855 383.890961,436.177246 384.303711,444.478668 
	C384.526825,448.965210 384.206024,453.476562 384.337891,457.970612 
	C384.443054,461.555359 382.692169,462.585083 379.410553,462.480713 
	C373.725159,462.299988 370.665375,458.896698 368.745209,454.105652 
	C365.699463,446.506287 363.777802,438.566071 362.104279,430.580719 
	C355.375244,398.473053 350.562073,366.040009 345.502014,333.641663 
	C342.319855,313.267273 339.355835,292.772247 331.705536,273.395599 
	C330.791290,271.079956 329.624542,268.857666 328.469055,266.647369 
	C328.109192,265.958984 327.400818,265.452789 326.712830,264.713684 
	C323.569855,266.512146 322.573792,269.602448 321.274811,272.376465 
	C313.960938,287.995422 309.834137,304.673645 305.287048,321.200043 
	C296.855499,351.844818 289.243286,382.713715 280.181610,413.185852 
	C278.759216,417.968933 277.162415,422.711578 275.394928,427.377716 
	C273.186432,433.208191 269.441406,437.639191 262.704559,437.726501 
	C255.992340,437.813446 251.893860,433.689728 249.782349,427.748901 
	C245.881958,416.775146 242.304047,405.687073 238.554794,394.659210 
	C232.765411,377.630554 226.940826,360.613464 218.262207,344.759796 
	C216.259644,341.101593 214.146530,337.516754 211.138870,334.553711 
	C206.511841,329.995361 202.189392,329.700989 197.010284,333.995789 
	C190.307938,339.553741 184.734085,346.208313 179.478745,353.103516 
	C171.990311,362.928650 162.741028,370.655487 152.018723,376.678314 
	C148.612122,378.591858 144.970276,379.303680 140.999435,379.250610 
	C123.174736,379.012421 105.347076,379.003265 87.521080,378.844635 
	C85.472412,378.826416 83.176041,379.444031 80.877670,376.800232 
	C108.324120,370.434570 135.701492,364.736450 156.228424,343.229736 
z"/>
<path fill="#000000" opacity="1.000000" stroke="none" 
	d="
M609.260010,222.000031 
	C609.232788,295.126678 609.205322,367.753326 609.177612,440.379974 
	C609.174561,448.322906 609.173889,448.322906 601.153259,448.318939 
	C592.062256,448.314453 592.088562,448.314423 592.096008,457.586884 
	C592.113586,479.408112 592.103760,501.229309 592.104553,523.050537 
	C592.104675,526.162231 592.197266,529.055664 587.663879,529.235962 
	C583.441895,529.403809 581.681335,528.169312 581.716431,523.655212 
	C581.892456,501.002319 581.832581,478.347565 581.823608,455.693451 
	C581.820679,448.304871 581.776306,448.334351 574.320679,448.280396 
	C564.490295,448.209320 564.836121,449.764587 564.829407,438.957825 
	C564.777832,356.170227 564.709717,273.382629 564.646362,190.595016 
	C564.640686,183.123138 564.639526,183.113480 572.106689,183.053482 
	C582.558350,182.969467 581.856750,184.124100 581.861023,173.412369 
	C581.867310,157.587845 581.930542,141.762848 581.819275,125.939110 
	C581.792297,122.107491 582.813721,119.965645 587.116028,120.001877 
	C591.174988,120.036072 592.170837,122.076065 592.151733,125.675743 
	C592.069519,141.166656 592.125244,156.658310 592.132141,172.149689 
	C592.132690,173.315689 592.143494,174.481720 592.151367,175.647705 
	C592.200684,182.953888 592.200928,182.953888 599.673645,182.979935 
	C609.252625,183.013290 609.258728,183.013290 609.264221,192.516251 
	C609.269836,202.177505 609.261719,211.838776 609.260010,222.000031 
z"/>
<path fill="#000000" opacity="1.000000" stroke="none" 
	d="
M508.872192,552.000000 
	C508.870758,494.342560 508.867889,437.185150 508.867493,380.027710 
	C508.867432,371.033569 508.872681,371.033569 517.573364,371.068207 
	C526.500488,371.103699 526.607422,371.002380 526.608826,362.303375 
	C526.612793,337.640717 526.653931,312.977905 526.571289,288.315521 
	C526.559998,284.933502 526.654297,282.596313 531.180481,282.666321 
	C535.624268,282.735077 536.354736,284.796722 536.341919,288.573425 
	C536.256104,313.902344 536.443115,339.232788 536.227234,364.560089 
	C536.184204,369.611786 537.706116,371.303375 542.753540,371.122009 
	C554.942200,370.684021 553.220093,371.425873 553.225037,381.718628 
	C553.256653,447.208069 553.231506,512.697510 553.215271,578.186951 
	C553.213318,586.208069 553.186462,586.208130 545.255676,586.192383 
	C535.308105,586.172607 536.356628,585.458374 536.348938,594.995544 
	C536.320740,629.823242 536.291565,664.651123 536.377930,699.478577 
	C536.387329,703.263672 535.699951,705.333984 531.229370,705.318420 
	C526.724487,705.302795 525.986633,703.068848 526.033997,699.371155 
	C526.268982,681.047058 526.461243,662.721863 526.553955,644.396545 
	C526.638977,627.578430 526.616577,610.759583 526.563843,593.941284 
	C526.540405,586.469666 526.262756,586.294189 519.092041,586.254333 
	C507.769653,586.191406 508.876770,587.021667 508.850830,575.996887 
	C508.832397,568.164673 508.862885,560.332275 508.872192,552.000000 
z"/>
<path fill="#000000" opacity="1.000000" stroke="none" 
	d="
M470.045593,277.997803 
	C470.041107,251.339493 470.009827,225.180710 470.067474,199.022156 
	C470.072968,196.525116 469.269043,193.480667 472.854492,192.338654 
	C477.467743,190.869263 480.146667,192.762070 480.158203,197.808014 
	C480.227112,227.965393 480.238831,258.122894 480.270569,288.280365 
	C480.277588,294.951508 480.279053,294.981171 486.871185,294.994232 
	C498.663696,295.017609 497.290985,294.241119 497.301117,305.514191 
	C497.340485,349.334290 497.320496,393.154449 497.312439,436.974579 
	C497.311096,444.248077 497.287384,444.224182 490.307556,444.277069 
	C478.691162,444.365051 480.196045,443.093719 480.189148,454.373138 
	C480.172516,481.531525 480.205383,508.689941 480.237091,535.848328 
	C480.240906,539.093750 480.669556,542.178894 475.673279,542.249207 
	C470.748596,542.318604 469.878540,539.919495 469.892090,535.755676 
	C469.983063,507.764587 469.946625,479.772980 469.933380,451.781555 
	C469.929871,444.343872 469.871307,444.314423 462.430359,444.269409 
	C453.634613,444.216217 453.664734,444.216034 453.627838,435.176392 
	C453.455170,392.861023 453.264526,350.545776 453.080414,308.230469 
	C453.077515,307.563995 453.073486,306.897552 453.073517,306.231079 
	C453.074249,295.226746 453.075409,295.043793 464.127319,295.104980 
	C468.708313,295.130310 470.504791,293.556152 470.134216,288.988098 
	C469.852203,285.511627 470.055817,281.995758 470.045593,277.997803 
z"/>
<path fill="#000000" opacity="1.000000" stroke="none" 
	d="
M403.306641,467.859192 
	C398.846985,468.079712 397.807007,465.936157 397.823761,462.267059 
	C397.931030,438.782166 397.960938,415.296295 397.847260,391.811554 
	C397.826477,387.513580 399.428436,385.959229 403.699707,385.869720 
	C415.309204,385.626404 415.367493,385.487640 415.567169,373.870056 
	C415.690216,366.709991 415.733063,359.542145 415.532043,352.385651 
	C415.435211,348.937775 416.574005,347.604706 420.092560,347.683014 
	C423.527771,347.759430 425.361389,348.702240 425.301605,352.539734 
	C425.156403,361.864899 425.429718,371.198242 425.189026,380.519409 
	C425.081146,384.698334 426.613068,386.009460 430.674896,385.985260 
	C443.868408,385.906616 442.189911,384.590271 442.254120,397.844177 
	C442.355865,418.830597 442.163177,439.818970 442.362305,460.803955 
	C442.407928,465.613373 441.242828,467.614166 435.979767,467.523895 
	C424.101837,467.320221 425.331299,465.854279 425.271881,478.060638 
	C425.212769,490.219452 425.159180,502.379944 425.309937,514.537170 
	C425.357635,518.383789 424.484436,520.391479 420.069489,520.315552 
	C415.743500,520.241089 415.582184,518.157349 415.447510,514.615479 
	C414.947388,501.459869 415.171234,488.308167 415.108459,475.155029 
	C415.074921,468.123566 414.912201,467.977142 407.759979,467.893951 
	C406.427460,467.878448 405.094788,467.876953 403.306641,467.859192 
z"/>
<path fill="#000000" opacity="1.000000" stroke="none" 
	d="
M620.678040,374.388245 
	C621.945068,370.048950 625.288818,371.239075 627.871155,371.167999 
	C637.623657,370.899689 637.631470,370.987305 637.628845,361.321136 
	C637.624146,344.500366 637.710754,327.678528 637.525330,310.859711 
	C637.485046,307.203613 638.235901,305.233795 642.283142,305.154236 
	C646.218262,305.076935 647.449341,306.725647 647.428467,310.554230 
	C647.327820,329.034302 647.439880,347.515533 647.493530,365.996338 
	C647.498291,367.633240 647.277405,369.326080 648.289795,370.943878 
	C652.011658,372.147095 655.829712,370.929504 659.614258,371.079681 
	C663.359619,371.228333 665.015503,372.827393 665.000061,376.604553 
	C664.936768,392.092499 664.924133,407.581268 665.026184,423.068848 
	C665.052002,426.988922 663.328003,428.211426 659.575928,428.289673 
	C647.394775,428.543549 647.381653,428.651031 647.368896,440.852722 
	C647.353455,455.674927 647.290344,470.497803 647.422485,485.318817 
	C647.455872,489.064514 646.826843,491.191406 642.315247,491.211304 
	C637.538818,491.232391 637.493164,488.718994 637.518982,485.151672 
	C637.641785,468.165436 637.499817,451.177307 637.623901,434.191101 
	C637.654846,429.954956 636.637146,428.004669 631.768982,428.077515 
	C619.003418,428.268616 620.751953,429.238983 620.669983,416.816925 
	C620.577698,402.828094 620.639954,388.838257 620.678040,374.388245 
z"/>
<path fill="#000000" opacity="1.000000" stroke="none" 
	d="
M693.444214,357.339386 
	C693.143921,351.912018 696.873169,353.090515 699.662537,352.960510 
	C702.968872,352.806396 703.365845,355.015961 703.309204,357.609711 
	C703.251160,360.273773 703.496521,362.957275 703.263428,365.601807 
	C702.906433,369.651703 704.787354,371.067688 708.545654,370.704865 
	C708.875488,370.673035 709.211609,370.703766 709.544739,370.709076 
	C721.586304,370.900879 721.046387,368.474396 721.012451,382.234283 
	C720.991882,390.563629 720.822998,398.895264 720.971802,407.221375 
	C721.057007,411.985138 719.421082,414.094635 714.315735,414.069550 
	C703.288513,414.015320 703.288818,414.231354 703.285095,425.221375 
	C703.283691,429.219543 703.157410,433.222015 703.304260,437.214569 
	C703.427979,440.577393 702.152039,442.057495 698.668030,442.046082 
	C695.104431,442.034424 692.893677,441.120148 692.975952,437.026764 
	C693.093018,431.198669 692.808777,425.358856 693.042053,419.537933 
	C693.208252,415.390594 691.632996,414.036102 687.514099,414.090759 
	C674.297546,414.266296 675.952393,415.229279 675.877808,402.248566 
	C675.826172,393.253021 675.931213,384.256531 675.877869,375.261017 
	C675.859985,372.242615 676.851135,370.712067 680.182251,370.593719 
	C684.250427,370.449219 689.275696,372.522552 692.147522,369.375092 
	C694.733582,366.540802 692.562500,361.641479 693.444214,357.339386 
z"/>
<path fill="#000000" opacity="1.000000" stroke="none" 
	d="
M748.179871,394.478455 
	C749.420654,393.618683 749.705261,392.657715 749.630066,391.637451 
	C749.385132,388.316376 750.690552,386.698273 754.210754,386.794739 
	C757.297302,386.879303 759.496216,387.578186 759.275635,391.256226 
	C759.100159,394.182129 760.816772,394.947479 763.367065,394.902954 
	C766.695312,394.844788 770.028381,394.989868 773.354187,394.883362 
	C776.625977,394.778625 778.405579,395.932068 778.206360,399.493042 
	C778.057861,402.148102 778.100525,404.821503 778.204712,407.480988 
	C778.318298,410.382446 777.065430,411.792145 774.139099,411.877930 
	C761.311646,412.253937 748.485840,412.424347 735.656067,411.960205 
	C733.021240,411.864868 731.587769,410.772949 731.710144,408.017792 
	C731.717529,407.851868 731.708984,407.684662 731.698730,407.518616 
	C730.924988,394.965088 730.924927,394.971924 743.312134,394.870514 
	C744.806152,394.858276 746.299133,394.723663 748.179871,394.478455 
z"/>
</svg>